<svg width="1440" height="1034" viewBox="0 0 1440 1034" fill="none" xmlns="http://www.w3.org/2000/svg">
<path d="M492.063 3.02044C491.912 1.81226 491.791 1.6915 490.552 1.51022C491.761 1.35907 491.882 1.2383 492.063 -6.60365e-08C492.214 1.20818 492.335 1.32894 493.574 1.51022C492.365 1.66111 492.245 1.81226 492.063 3.02044Z" fill="white" fill-opacity="0.1"/>
<path d="M408.465 246.806C408.314 245.598 408.193 245.477 406.954 245.296C408.163 245.145 408.284 245.024 408.465 243.786C408.616 244.994 408.737 245.114 409.976 245.296C408.767 245.447 408.646 245.598 408.465 246.806Z" fill="white" fill-opacity="0.1"/>
<path d="M421.782 80.3301C421.631 79.122 421.51 79.0012 420.271 78.8199C421.48 78.6688 421.6 78.548 421.782 77.3097C421.933 78.5179 422.054 78.6386 423.293 78.8199C422.084 78.9708 421.963 79.122 421.782 80.3301Z" fill="white" fill-opacity="0.1"/>
<path d="M507.229 185.383C507.078 184.174 506.957 184.054 505.718 183.872C506.927 183.721 507.048 183.6 507.229 182.362C507.38 183.57 507.501 183.691 508.74 183.872C507.531 184.023 507.411 184.174 507.229 185.383Z" fill="white" fill-opacity="0.1"/>
<path d="M383.236 1.11756C383.236 1.73477 382.736 2.2351 382.118 2.2351C381.5 2.2351 381 1.73477 381 1.11756C381 0.500359 381.5 -2.18762e-08 382.118 -4.8872e-08C382.736 -7.58679e-08 383.236 0.500359 383.236 1.11756Z" fill="white" fill-opacity="0.1"/>
<path d="M598.951 94.703C598.951 95.3201 598.45 95.8205 597.832 95.8205C597.215 95.8205 596.714 95.3201 596.714 94.703C596.714 94.0857 597.215 93.5854 597.832 93.5854C598.45 93.5854 598.951 94.0857 598.951 94.703Z" fill="white" fill-opacity="0.1"/>
<path d="M444.895 145.22C444.895 145.837 444.395 146.337 443.777 146.337C443.16 146.337 442.659 145.837 442.659 145.22C442.659 144.602 443.16 144.102 443.777 144.102C444.395 144.102 444.895 144.602 444.895 145.22Z" fill="white" fill-opacity="0.1"/>
<path d="M450.25 248.582C450.25 249.2 449.749 249.7 449.131 249.7C448.514 249.7 448.013 249.2 448.013 248.582C448.013 247.965 448.514 247.465 449.131 247.465C449.749 247.465 450.25 247.965 450.25 248.582Z" fill="white" fill-opacity="0.1"/>
<path d="M465.724 188.287C465.724 188.904 465.223 189.405 464.606 189.405C463.988 189.405 463.488 188.904 463.488 188.287C463.488 187.67 463.988 187.17 464.606 187.17C465.223 187.17 465.724 187.67 465.724 188.287Z" fill="white" fill-opacity="0.1"/>
<path d="M672.388 13.0645C671.38 13.5102 670.202 13.0552 669.756 12.0485C669.31 11.0419 669.766 9.86436 670.773 9.41869C671.78 8.97303 672.958 9.42779 673.404 10.4347C673.85 11.4413 673.395 12.6186 672.388 13.0645Z" fill="white" fill-opacity="0.15"/>
<path d="M518.215 29.7362C518.215 30.8371 517.322 31.7296 516.221 31.7296C515.119 31.7296 514.226 30.8371 514.226 29.7362C514.226 28.6352 515.119 27.7427 516.221 27.7427C517.322 27.7427 518.215 28.6352 518.215 29.7362Z" fill="white" fill-opacity="0.15"/>
<path d="M666.332 78.1235C665.553 78.9018 664.29 78.9018 663.511 78.1235C662.732 77.3448 662.732 76.0827 663.511 75.3043C664.29 74.5257 665.553 74.5257 666.332 75.3043C667.111 76.0827 667.111 77.3448 666.332 78.1235Z" fill="white" fill-opacity="0.15"/>
<path d="M641.119 28.8602C641.119 29.4773 640.619 29.9777 640.001 29.9777C639.384 29.9777 638.883 29.4773 638.883 28.8602C638.883 28.2429 639.384 27.7427 640.001 27.7427C640.619 27.7427 641.119 28.2429 641.119 28.8602Z" fill="white" fill-opacity="0.15"/>
<path d="M547.904 145.38C547.904 145.997 547.403 146.497 546.786 146.497C546.168 146.497 545.668 145.997 545.668 145.38C545.668 144.762 546.168 144.262 546.786 144.262C547.403 144.262 547.904 144.762 547.904 145.38Z" fill="white" fill-opacity="0.15"/>
<path d="M485.405 71.0826C485.254 69.8744 485.133 69.7536 483.894 69.5724C485.103 69.4212 485.224 69.3004 485.405 68.0621C485.556 69.2703 485.677 69.3911 486.916 69.5724C485.707 69.7232 485.586 69.8744 485.405 71.0826Z" fill="white" fill-opacity="0.1"/>
<path d="M590.765 22.994C590.614 21.7858 590.493 21.665 589.254 21.4837C590.463 21.3326 590.584 21.2118 590.765 19.9735C590.916 21.1817 591.037 21.3025 592.276 21.4837C591.068 21.6346 590.947 21.7858 590.765 22.994Z" fill="white" fill-opacity="0.1"/>
<path d="M514.196 149.131C514.044 147.923 513.924 147.802 512.685 147.621C513.893 147.469 514.014 147.349 514.196 146.11C514.347 147.319 514.468 147.439 515.706 147.621C514.498 147.771 514.377 147.923 514.196 149.131Z" fill="white" fill-opacity="0.1"/>
<path d="M446.503 34.091C446.352 32.8828 446.231 32.7621 444.992 32.5808C446.201 32.4296 446.322 32.3089 446.503 31.0706C446.654 32.2787 446.775 32.3995 448.014 32.5808C446.806 32.7317 446.685 32.8828 446.503 34.091Z" fill="white" fill-opacity="0.1"/>
<path d="M835.223 451.39C835.374 452.598 835.495 452.719 836.734 452.9C835.525 453.051 835.405 453.172 835.223 454.411C835.072 453.202 834.951 453.082 833.712 452.9C834.921 452.749 835.042 452.598 835.223 451.39Z" fill="white" fill-opacity="0.1"/>
<path d="M918.821 207.605C918.972 208.813 919.093 208.934 920.332 209.115C919.124 209.266 919.003 209.387 918.821 210.625C918.67 209.417 918.549 209.296 917.31 209.115C918.519 208.964 918.64 208.813 918.821 207.605Z" fill="white" fill-opacity="0.1"/>
<path d="M905.505 374.08C905.656 375.289 905.777 375.409 907.016 375.591C905.807 375.742 905.686 375.863 905.505 377.101C905.354 375.893 905.233 375.772 903.994 375.591C905.202 375.44 905.323 375.289 905.505 374.08Z" fill="white" fill-opacity="0.1"/>
<path d="M820.057 269.028C820.208 270.236 820.329 270.357 821.568 270.538C820.359 270.689 820.238 270.81 820.057 272.048C819.906 270.84 819.785 270.72 818.546 270.538C819.755 270.387 819.876 270.236 820.057 269.028Z" fill="white" fill-opacity="0.1"/>
<path d="M944.05 453.293C944.05 452.676 944.551 452.175 945.168 452.175C945.786 452.175 946.286 452.676 946.286 453.293C946.286 453.91 945.786 454.411 945.168 454.411C944.551 454.411 944.05 453.91 944.05 453.293Z" fill="white" fill-opacity="0.1"/>
<path d="M728.336 359.708C728.336 359.09 728.836 358.59 729.454 358.59C730.071 358.59 730.572 359.09 730.572 359.708C730.572 360.325 730.071 360.825 729.454 360.825C728.836 360.825 728.336 360.325 728.336 359.708Z" fill="white" fill-opacity="0.1"/>
<path d="M882.391 309.191C882.391 308.574 882.892 308.073 883.509 308.073C884.127 308.073 884.627 308.574 884.627 309.191C884.627 309.808 884.127 310.308 883.509 310.308C882.892 310.308 882.391 309.808 882.391 309.191Z" fill="white" fill-opacity="0.1"/>
<path d="M877.037 205.828C877.037 205.211 877.537 204.71 878.155 204.71C878.772 204.71 879.273 205.211 879.273 205.828C879.273 206.445 878.772 206.946 878.155 206.946C877.537 206.946 877.037 206.445 877.037 205.828Z" fill="white" fill-opacity="0.1"/>
<path d="M861.563 266.123C861.563 265.506 862.063 265.006 862.681 265.006C863.298 265.006 863.799 265.506 863.799 266.123C863.799 266.741 863.298 267.241 862.681 267.241C862.063 267.241 861.563 266.741 861.563 266.123Z" fill="white" fill-opacity="0.1"/>
<path d="M654.899 441.346C655.906 440.9 657.084 441.355 657.53 442.362C657.976 443.369 657.521 444.546 656.513 444.992C655.506 445.437 654.328 444.983 653.882 443.976C653.436 442.969 653.892 441.792 654.899 441.346Z" fill="white" fill-opacity="0.15"/>
<path d="M809.071 424.674C809.071 423.573 809.964 422.681 811.066 422.681C812.167 422.681 813.06 423.573 813.06 424.674C813.06 425.775 812.167 426.668 811.066 426.668C809.964 426.668 809.071 425.775 809.071 424.674Z" fill="white" fill-opacity="0.15"/>
<path d="M660.955 376.287C661.734 375.509 662.996 375.509 663.775 376.287C664.554 377.066 664.554 378.328 663.775 379.106C662.996 379.885 661.734 379.885 660.955 379.106C660.176 378.328 660.176 377.066 660.955 376.287Z" fill="white" fill-opacity="0.15"/>
<path d="M686.167 425.55C686.167 424.933 686.667 424.433 687.285 424.433C687.903 424.433 688.403 424.933 688.403 425.55C688.403 426.168 687.903 426.668 687.285 426.668C686.667 426.668 686.167 426.168 686.167 425.55Z" fill="white" fill-opacity="0.15"/>
<path d="M779.383 309.031C779.383 308.414 779.883 307.913 780.501 307.913C781.118 307.913 781.619 308.414 781.619 309.031C781.619 309.648 781.118 310.148 780.501 310.148C779.883 310.148 779.383 309.648 779.383 309.031Z" fill="white" fill-opacity="0.15"/>
<path d="M841.881 383.328C842.032 384.536 842.153 384.657 843.392 384.838C842.184 384.989 842.063 385.11 841.881 386.348C841.73 385.14 841.609 385.019 840.37 384.838C841.579 384.687 841.7 384.536 841.881 383.328Z" fill="white" fill-opacity="0.1"/>
<path d="M736.521 431.417C736.672 432.625 736.793 432.746 738.032 432.927C736.823 433.078 736.702 433.199 736.521 434.437C736.37 433.229 736.249 433.108 735.01 432.927C736.219 432.776 736.34 432.625 736.521 431.417Z" fill="white" fill-opacity="0.1"/>
<path d="M813.091 305.28C813.242 306.488 813.363 306.609 814.602 306.79C813.393 306.941 813.272 307.062 813.091 308.3C812.94 307.092 812.819 306.971 811.58 306.79C812.789 306.639 812.91 306.488 813.091 305.28Z" fill="white" fill-opacity="0.1"/>
<path d="M880.783 420.32C880.934 421.528 881.055 421.648 882.294 421.83C881.085 421.981 880.964 422.102 880.783 423.34C880.632 422.132 880.511 422.011 879.272 421.83C880.481 421.679 880.602 421.528 880.783 420.32Z" fill="white" fill-opacity="0.1"/>
<path d="M972.658 654.202C972.809 652.994 972.93 652.873 974.169 652.692C972.96 652.54 972.84 652.42 972.658 651.181C972.507 652.39 972.386 652.51 971.147 652.692C972.356 652.843 972.477 652.994 972.658 654.202Z" fill="white" fill-opacity="0.1"/>
<path d="M1056.3 796.362C1056.45 795.154 1056.57 795.033 1057.81 794.852C1056.6 794.7 1056.48 794.58 1056.3 793.341C1056.15 794.55 1056.03 794.67 1054.79 794.852C1056 795.003 1056.12 795.154 1056.3 796.362Z" fill="white" fill-opacity="0.1"/>
<path d="M960.063 788.025C960.214 786.817 960.334 786.696 961.573 786.514C960.365 786.363 960.244 786.243 960.063 785.004C959.911 786.212 959.791 786.333 958.552 786.514C959.76 786.665 959.881 786.817 960.063 788.025Z" fill="white" fill-opacity="0.1"/>
<path d="M795.231 696.139C795.382 694.931 795.503 694.81 796.742 694.629C795.533 694.478 795.412 694.357 795.231 693.119C795.08 694.327 794.959 694.448 793.72 694.629C794.929 694.78 795.05 694.931 795.231 696.139Z" fill="white" fill-opacity="0.1"/>
<path d="M883.944 600.196C884.095 598.988 884.216 598.867 885.455 598.686C884.246 598.534 884.125 598.414 883.944 597.175C883.793 598.383 883.672 598.504 882.433 598.686C883.641 598.836 883.762 598.988 883.944 600.196Z" fill="white" fill-opacity="0.1"/>
<path d="M903.152 646.203C903.152 646.82 903.653 647.32 904.27 647.32C904.888 647.32 905.388 646.82 905.388 646.203C905.388 645.585 904.888 645.085 904.27 645.085C903.653 645.085 903.152 645.585 903.152 646.203Z" fill="white" fill-opacity="0.1"/>
<path d="M737.061 754.068C737.061 754.685 737.561 755.185 738.179 755.185C738.796 755.185 739.297 754.685 739.297 754.068C739.297 753.45 738.796 752.95 738.179 752.95C737.561 752.95 737.061 753.45 737.061 754.068Z" fill="white" fill-opacity="0.1"/>
<path d="M993.773 678.607C993.773 679.224 994.274 679.725 994.892 679.725C995.509 679.725 996.01 679.224 996.01 678.607C996.01 677.99 995.509 677.49 994.892 677.49C994.274 677.49 993.773 677.99 993.773 678.607Z" fill="white" fill-opacity="0.1"/>
<path d="M782.594 596.118C782.594 596.735 783.095 597.235 783.713 597.235C784.33 597.235 784.831 596.735 784.831 596.118C784.831 595.5 784.33 595 783.713 595C783.095 595 782.594 595.5 782.594 596.118Z" fill="white" fill-opacity="0.1"/>
<path d="M1020.41 721.886C1020.41 722.503 1020.91 723.004 1021.52 723.004C1022.14 723.004 1022.64 722.503 1022.64 721.886C1022.64 721.269 1022.14 720.768 1021.52 720.768C1020.91 720.768 1020.41 721.269 1020.41 721.886Z" fill="white" fill-opacity="0.1"/>
<path d="M985.618 811.133C985.618 811.751 986.118 812.251 986.736 812.251C987.353 812.251 987.854 811.751 987.854 811.133C987.854 810.516 987.353 810.016 986.736 810.016C986.118 810.016 985.618 810.516 985.618 811.133Z" fill="white" fill-opacity="0.1"/>
<path d="M965.599 702.651C965.599 703.268 966.099 703.769 966.717 703.769C967.334 703.769 967.835 703.268 967.835 702.651C967.835 702.034 967.334 701.534 966.717 701.534C966.099 701.534 965.599 702.034 965.599 702.651Z" fill="white" fill-opacity="0.1"/>
<path d="M981.275 746.136C982.282 746.582 983.46 746.127 983.906 745.12C984.352 744.114 983.897 742.936 982.889 742.49C981.882 742.045 980.704 742.499 980.258 743.506C979.812 744.513 980.268 745.69 981.275 746.136Z" fill="white" fill-opacity="0.15"/>
<path d="M834.571 740.59C834.571 741.691 835.464 742.584 836.565 742.584C837.667 742.584 838.56 741.691 838.56 740.59C838.56 739.489 837.667 738.597 836.565 738.597C835.464 738.597 834.571 739.489 834.571 740.59Z" fill="white" fill-opacity="0.15"/>
<path d="M900.71 707.624C901.489 708.402 902.752 708.402 903.531 707.624C904.31 706.845 904.31 705.583 903.531 704.805C902.752 704.026 901.489 704.026 900.71 704.805C899.931 705.583 899.931 706.845 900.71 707.624Z" fill="white" fill-opacity="0.15"/>
<path d="M972.627 604.997C972.627 605.614 973.128 606.114 973.745 606.114C974.363 606.114 974.863 605.614 974.863 604.997C974.863 604.38 974.363 603.879 973.745 603.879C973.128 603.879 972.627 604.38 972.627 604.997Z" fill="white" fill-opacity="0.15"/>
<path d="M850.251 636.068C850.251 636.685 850.752 637.186 851.369 637.186C851.987 637.186 852.487 636.685 852.487 636.068C852.487 635.451 851.987 634.951 851.369 634.951C850.752 634.951 850.251 635.451 850.251 636.068Z" fill="white" fill-opacity="0.15"/>
<path d="M838.674 810.061C838.825 808.852 838.946 808.732 840.185 808.55C838.976 808.399 838.855 808.278 838.674 807.04C838.523 808.248 838.402 808.369 837.163 808.55C838.371 808.701 838.492 808.852 838.674 810.061Z" fill="white" fill-opacity="0.1"/>
<path d="M751.148 667.148C751.3 665.94 751.42 665.819 752.659 665.638C751.451 665.487 751.33 665.366 751.148 664.128C750.997 665.336 750.876 665.457 749.638 665.638C750.846 665.789 750.967 665.94 751.148 667.148Z" fill="white" fill-opacity="0.1"/>
<path d="M695.51 719.768C695.661 718.56 695.782 718.439 697.021 718.258C695.812 718.107 695.692 717.986 695.51 716.748C695.359 717.956 695.238 718.077 693.999 718.258C695.208 718.409 695.329 718.56 695.51 719.768Z" fill="white" fill-opacity="0.1"/>
<path d="M697.656 974.117C697.807 975.325 697.928 975.446 699.167 975.627C697.959 975.778 697.838 975.899 697.656 977.137C697.505 975.929 697.384 975.809 696.146 975.627C697.354 975.476 697.475 975.325 697.656 974.117Z" fill="white" fill-opacity="0.1"/>
<path d="M781.3 831.957C781.451 833.165 781.572 833.286 782.811 833.467C781.603 833.618 781.482 833.739 781.3 834.977C781.149 833.769 781.028 833.648 779.789 833.467C780.998 833.316 781.119 833.165 781.3 831.957Z" fill="white" fill-opacity="0.1"/>
<path d="M685.061 840.294C685.212 841.502 685.333 841.623 686.572 841.804C685.363 841.956 685.242 842.076 685.061 843.315C684.909 842.106 684.789 841.986 683.55 841.804C684.758 841.653 684.879 841.502 685.061 840.294Z" fill="white" fill-opacity="0.1"/>
<path d="M485.764 774C485.915 775.208 486.036 775.329 487.275 775.51C486.066 775.661 485.945 775.782 485.764 777.02C485.613 775.812 485.492 775.691 484.253 775.51C485.462 775.359 485.583 775.208 485.764 774Z" fill="white" fill-opacity="0.1"/>
<path d="M608.942 1028.12C609.093 1029.33 609.214 1029.45 610.453 1029.63C609.244 1029.78 609.123 1029.91 608.942 1031.14C608.791 1029.94 608.67 1029.81 607.431 1029.63C608.639 1029.48 608.76 1029.33 608.942 1028.12Z" fill="white" fill-opacity="0.1"/>
<path d="M628.15 982.116C628.15 981.499 628.651 980.999 629.268 980.999C629.886 980.999 630.386 981.499 630.386 982.116C630.386 982.733 629.886 983.234 629.268 983.234C628.651 983.234 628.15 982.733 628.15 982.116Z" fill="white" fill-opacity="0.1"/>
<path d="M462.059 874.251C462.059 873.634 462.559 873.134 463.177 873.134C463.794 873.134 464.295 873.634 464.295 874.251C464.295 874.869 463.794 875.369 463.177 875.369C462.559 875.369 462.059 874.869 462.059 874.251Z" fill="white" fill-opacity="0.1"/>
<path d="M718.771 949.712C718.771 949.095 719.272 948.594 719.89 948.594C720.507 948.594 721.008 949.095 721.008 949.712C721.008 950.329 720.507 950.829 719.89 950.829C719.272 950.829 718.771 950.329 718.771 949.712Z" fill="white" fill-opacity="0.1"/>
<path d="M507.592 1032.2C507.592 1031.58 508.093 1031.08 508.711 1031.08C509.328 1031.08 509.829 1031.58 509.829 1032.2C509.829 1032.82 509.328 1033.32 508.711 1033.32C508.093 1033.32 507.592 1032.82 507.592 1032.2Z" fill="white" fill-opacity="0.1"/>
<path d="M745.404 906.433C745.404 905.816 745.905 905.315 746.523 905.315C747.14 905.315 747.641 905.816 747.641 906.433C747.641 907.05 747.14 907.551 746.523 907.551C745.905 907.551 745.404 907.05 745.404 906.433Z" fill="white" fill-opacity="0.1"/>
<path d="M710.616 817.185C710.616 816.568 711.116 816.068 711.734 816.068C712.351 816.068 712.852 816.568 712.852 817.185C712.852 817.803 712.351 818.303 711.734 818.303C711.116 818.303 710.616 817.803 710.616 817.185Z" fill="white" fill-opacity="0.1"/>
<path d="M690.597 925.667C690.597 925.05 691.098 924.55 691.715 924.55C692.333 924.55 692.833 925.05 692.833 925.667C692.833 926.285 692.333 926.785 691.715 926.785C691.098 926.785 690.597 926.285 690.597 925.667Z" fill="white" fill-opacity="0.1"/>
<path d="M706.273 882.183C707.28 881.737 708.458 882.192 708.904 883.199C709.35 884.205 708.895 885.383 707.887 885.828C706.88 886.274 705.702 885.819 705.256 884.813C704.81 883.806 705.266 882.629 706.273 882.183Z" fill="white" fill-opacity="0.15"/>
<path d="M559.569 887.728C559.569 886.627 560.462 885.735 561.563 885.735C562.665 885.735 563.558 886.627 563.558 887.728C563.558 888.829 562.665 889.722 561.563 889.722C560.462 889.722 559.569 888.829 559.569 887.728Z" fill="white" fill-opacity="0.15"/>
<path d="M625.708 920.695C626.487 919.917 627.75 919.917 628.529 920.695C629.308 921.474 629.308 922.736 628.529 923.514C627.75 924.293 626.487 924.293 625.708 923.514C624.929 922.736 624.929 921.474 625.708 920.695Z" fill="white" fill-opacity="0.15"/>
<path d="M697.625 1023.32C697.625 1022.7 698.126 1022.2 698.743 1022.2C699.361 1022.2 699.861 1022.7 699.861 1023.32C699.861 1023.94 699.361 1024.44 698.743 1024.44C698.126 1024.44 697.625 1023.94 697.625 1023.32Z" fill="white" fill-opacity="0.15"/>
<path d="M575.249 992.251C575.249 991.634 575.75 991.133 576.367 991.133C576.985 991.133 577.485 991.634 577.485 992.251C577.485 992.868 576.985 993.368 576.367 993.368C575.75 993.368 575.249 992.868 575.249 992.251Z" fill="white" fill-opacity="0.15"/>
<path d="M563.672 818.258C563.823 819.467 563.944 819.587 565.183 819.769C563.974 819.92 563.853 820.041 563.672 821.279C563.521 820.071 563.4 819.95 562.161 819.769C563.369 819.618 563.49 819.467 563.672 818.258Z" fill="white" fill-opacity="0.1"/>
<path d="M476.146 961.171C476.298 962.379 476.418 962.5 477.657 962.681C476.449 962.832 476.328 962.953 476.146 964.191C475.995 962.983 475.875 962.862 474.636 962.681C475.844 962.53 475.965 962.379 476.146 961.171Z" fill="white" fill-opacity="0.1"/>
<path d="M422.511 808.031C422.662 809.239 422.782 809.36 424.021 809.541C422.813 809.692 422.692 809.813 422.511 811.052C422.359 809.843 422.239 809.723 421 809.541C422.208 809.39 422.329 809.239 422.511 808.031Z" fill="white" fill-opacity="0.1"/>
</svg>
